<?xml version="1.0" encoding="UTF-8" standalone="no"?>
<!-- Created with Inkscape (http://www.inkscape.org/) -->

<svg
   xmlns:dc="http://purl.org/dc/elements/1.1/"
   xmlns:cc="http://creativecommons.org/ns#"
   xmlns:rdf="http://www.w3.org/1999/02/22-rdf-syntax-ns#"
   xmlns:svg="http://www.w3.org/2000/svg"
   xmlns="http://www.w3.org/2000/svg"
   xmlns:sodipodi="http://sodipodi.sourceforge.net/DTD/sodipodi-0.dtd"
   xmlns:inkscape="http://www.inkscape.org/namespaces/inkscape"
   width="40.495121mm"
   height="10.613221mm"
   viewBox="0 0 40.495121 10.613221"
   version="1.1"
   id="svg1634"
   inkscape:version="0.92.5 (2060ec1f9f, 2020-04-08)"
   sodipodi:docname="nomisma-horizontal.svg">
  <defs
     id="defs1628" />
  <sodipodi:namedview
     id="base"
     pagecolor="#ffffff"
     bordercolor="#666666"
     borderopacity="1.0"
     inkscape:pageopacity="0.0"
     inkscape:pageshadow="2"
     inkscape:zoom="0.35"
     inkscape:cx="-439.18825"
     inkscape:cy="-282.80066"
     inkscape:document-units="mm"
     inkscape:current-layer="layer1"
     showgrid="false"
     inkscape:window-width="3752"
     inkscape:window-height="2096"
     inkscape:window-x="88"
     inkscape:window-y="27"
     inkscape:window-maximized="1" />
  <metadata
     id="metadata1631">
    <rdf:RDF>
      <cc:Work
         rdf:about="">
        <dc:format>image/svg+xml</dc:format>
        <dc:type
           rdf:resource="http://purl.org/dc/dcmitype/StillImage" />
        <dc:title />
      </cc:Work>
    </rdf:RDF>
  </metadata>
  <g
     inkscape:label="Layer 1"
     inkscape:groupmode="layer"
     id="layer1"
     transform="translate(-56.859631,-63.39577)">
    <path
       d="m 66.981171,69.680589 h 4.84047 l 0.16475,0.8001 h -5.17702 l 0.1718,-0.8001"
       style="fill:#5a74c2;fill-opacity:1;fill-rule:evenodd;stroke:none;stroke-width:0.35277775"
       id="path46"
       inkscape:connector-curvature="0" />
    <path
       d="m 62.485731,71.058189 c 0,-0.1524 -0.0282,-0.29775 -0.084,-0.43604 -0.0557,-0.13758 -0.13547,-0.26035 -0.2406,-0.36759 -0.1016,-0.10654 -0.22013,-0.18768 -0.35419,-0.24483 -0.13476,-0.0572 -0.27587,-0.0861 -0.42474,-0.0861 -0.14887,0 -0.29069,0.0282 -0.42475,0.0847 -0.13405,0.0564 -0.254,0.13829 -0.35842,0.24624 -0.10442,0.10583 -0.18485,0.22789 -0.23989,0.36548 -0.055,0.13829 -0.0825,0.28434 -0.0825,0.43815 0,0.1531 0.0275,0.29774 0.0825,0.43462 0.055,0.13617 0.13547,0.25823 0.23989,0.36548 0.10442,0.10795 0.22366,0.18979 0.35772,0.24624 0.13335,0.0564 0.27517,0.0847 0.42545,0.0847 0.14746,0 0.28787,-0.0282 0.42051,-0.0847 0.13264,-0.0564 0.25259,-0.13829 0.35842,-0.24624 0.10513,-0.10725 0.18486,-0.22931 0.2406,-0.36689 0.0557,-0.13688 0.084,-0.28152 0.084,-0.43321 z m 0.51294,0 c 0,0.21519 -0.0402,0.41839 -0.12065,0.6096 -0.0811,0.19191 -0.19826,0.36265 -0.35278,0.51294 -0.15593,0.15028 -0.33161,0.26529 -0.52705,0.34501 -0.19544,0.0797 -0.40076,0.11995 -0.61595,0.11995 -0.21802,0 -0.42545,-0.0402 -0.62301,-0.12065 -0.19826,-0.0811 -0.37253,-0.19544 -0.52422,-0.34431 -0.15452,-0.15029 -0.27164,-0.32033 -0.35137,-0.51083 -0.0797,-0.18979 -0.11995,-0.3937 -0.11995,-0.61171 0,-0.21661 0.0402,-0.42051 0.11995,-0.61172 0.0797,-0.19191 0.19685,-0.36336 0.35137,-0.51505 0.15451,-0.15029 0.32949,-0.26459 0.52493,-0.3429 0.19544,-0.0783 0.40287,-0.11783 0.6223,-0.11783 0.21802,0 0.42404,0.0395 0.61877,0.11783 0.19544,0.0783 0.36971,0.19261 0.52423,0.3429 0.15452,0.1531 0.27164,0.32596 0.35278,0.51787 0.0804,0.19262 0.12065,0.39511 0.12065,0.6089"
       style="fill:#254aa5;fill-opacity:1;fill-rule:nonzero;stroke:none;stroke-width:0.35277775"
       id="path62"
       inkscape:connector-curvature="0" />
    <path
       d="m 74.502401,72.590649 v -1.79599 h 0.38664 v 0.29351 c 0.0822,-0.12417 0.17851,-0.21413 0.28998,-0.27093 0.11113,-0.0568 0.24624,-0.0854 0.40535,-0.0854 0.13405,0 0.24765,0.0215 0.34219,0.0635 0.0938,0.0427 0.16757,0.10513 0.22049,0.18873 0.0317,0.049 0.0543,0.1069 0.0688,0.17216 0.0134,0.066 0.0205,0.18098 0.0205,0.34466 v 1.08973 h -0.41522 v -0.92286 c 0,-0.23601 -0.0282,-0.39335 -0.0861,-0.47096 -0.0575,-0.0776 -0.15946,-0.11642 -0.30586,-0.11642 -0.0963,0 -0.18168,0.0176 -0.25647,0.0533 -0.0751,0.0353 -0.13476,0.085 -0.17745,0.14923 -0.0303,0.0434 -0.0519,0.0984 -0.0635,0.16616 -0.012,0.0674 -0.018,0.17533 -0.018,0.32279 v 0.81879 h -0.41133"
       style="fill:#254aa5;fill-opacity:1;fill-rule:nonzero;stroke:none;stroke-width:0.35277775"
       id="path74"
       inkscape:connector-curvature="0" />
    <path
       d="m 78.195271,71.698129 c 0,-0.16687 -0.0536,-0.30798 -0.16122,-0.42369 -0.10724,-0.11571 -0.23847,-0.17321 -0.3937,-0.17321 -0.15451,0 -0.28504,0.0575 -0.39334,0.17321 -0.10795,0.11571 -0.16228,0.25682 -0.16228,0.42369 0,0.16686 0.0543,0.30762 0.16228,0.42368 0.1083,0.11571 0.23883,0.17322 0.39334,0.17322 0.15382,0 0.2847,-0.0575 0.39265,-0.17322 0.10795,-0.11606 0.16227,-0.25682 0.16227,-0.42368 z m -1.54446,-0.004 c 0,-0.13124 0.0254,-0.25541 0.0751,-0.37183 0.0497,-0.11712 0.12136,-0.22119 0.21449,-0.31186 0.0928,-0.09 0.19862,-0.15839 0.31891,-0.20708 0.11959,-0.0476 0.24518,-0.0716 0.37712,-0.0716 0.13512,0 0.26176,0.024 0.38171,0.0716 0.11959,0.0487 0.22613,0.11924 0.32138,0.21238 0.0942,0.0924 0.16686,0.19649 0.2159,0.31291 0.0494,0.11571 0.0737,0.23812 0.0737,0.36548 0,0.13264 -0.0243,0.25752 -0.073,0.37324 -0.0483,0.11641 -0.11959,0.21907 -0.21273,0.30903 -0.0991,0.0945 -0.20849,0.16616 -0.32808,0.21484 -0.1203,0.0483 -0.24624,0.073 -0.37888,0.073 -0.13053,0 -0.25541,-0.0247 -0.37571,-0.073 -0.11959,-0.0487 -0.22648,-0.11924 -0.32032,-0.21096 -0.0942,-0.0938 -0.16687,-0.19861 -0.2159,-0.31503 -0.049,-0.11571 -0.0737,-0.23989 -0.0737,-0.37112"
       style="fill:#254aa5;fill-opacity:1;fill-rule:nonzero;stroke:none;stroke-width:0.35277775"
       id="path76"
       inkscape:connector-curvature="0" />
    <path
       d="m 79.475861,72.590649 h -0.41134 v -1.79599 h 0.38664 v 0.29351 c 0.0822,-0.12559 0.17533,-0.2166 0.2794,-0.2741 0.10407,-0.0575 0.22719,-0.0861 0.36866,-0.0861 0.1397,0 0.25611,0.0293 0.34819,0.0878 0.0924,0.0589 0.16228,0.14817 0.2099,0.26846 0.0952,-0.12417 0.19614,-0.21413 0.30268,-0.27093 0.1069,-0.0568 0.2286,-0.0854 0.36478,-0.0854 0.11853,0 0.22189,0.0219 0.31044,0.0653 0.0889,0.0434 0.15734,0.10725 0.20638,0.19015 0.0233,0.0395 0.0402,0.0861 0.0505,0.1404 0.0109,0.0543 0.0162,0.13194 0.0162,0.23354 v 1.23331 h -0.41135 v -0.92286 c 0,-0.2413 -0.0258,-0.40041 -0.0769,-0.47661 -0.0512,-0.0765 -0.14252,-0.11465 -0.27375,-0.11465 -0.16158,0 -0.27658,0.0519 -0.34537,0.15452 -0.0691,0.10301 -0.10337,0.28328 -0.10337,0.54081 v 0.81879 h -0.41521 v -0.92286 c 0,-0.22261 -0.0265,-0.37642 -0.0801,-0.46249 -0.0536,-0.0861 -0.14641,-0.12877 -0.27764,-0.12877 -0.0808,0 -0.15452,0.0183 -0.2219,0.055 -0.0663,0.037 -0.11959,0.0871 -0.1591,0.15134 -0.025,0.042 -0.0427,0.0931 -0.0529,0.15381 -0.01,0.0603 -0.0148,0.17215 -0.0148,0.33514 v 0.81879"
       style="fill:#254aa5;fill-opacity:1;fill-rule:nonzero;stroke:none;stroke-width:0.35277775"
       id="path78"
       inkscape:connector-curvature="0" />
    <path
       d="m 82.424371,70.017849 c 0,-0.0699 0.0258,-0.13018 0.0769,-0.18027 0.0512,-0.0508 0.11184,-0.0759 0.18239,-0.0759 0.0737,0 0.13441,0.0247 0.18309,0.073 0.0483,0.0487 0.073,0.10937 0.073,0.1831 0,0.073 -0.0247,0.13476 -0.0737,0.1845 -0.049,0.0497 -0.11006,0.0748 -0.18238,0.0748 -0.0706,0 -0.13124,-0.0258 -0.18239,-0.0769 -0.0512,-0.0512 -0.0769,-0.11183 -0.0769,-0.18238 z m 0.46638,2.5728 h -0.41141 v -1.79599 h 0.41141 z"
       style="fill:#254aa5;fill-opacity:1;fill-rule:nonzero;stroke:none;stroke-width:0.35277775"
       id="path80"
       inkscape:connector-curvature="0" />
    <path
       d="m 83.271041,72.264689 0.34078,-0.18556 c 0.0254,0.09 0.072,0.15769 0.14041,0.20496 0.0684,0.0466 0.15593,0.0699 0.26388,0.0699 0.0917,0 0.16439,-0.0215 0.2166,-0.0635 0.0526,-0.0427 0.079,-0.10019 0.079,-0.17321 0,-0.0977 -0.0931,-0.18098 -0.2801,-0.25012 -0.0635,-0.0226 -0.11184,-0.0416 -0.14605,-0.0572 -0.19227,-0.0794 -0.32668,-0.16016 -0.40323,-0.24236 -0.0762,-0.0822 -0.1143,-0.18168 -0.1143,-0.29951 0,-0.16051 0.0628,-0.29034 0.18874,-0.39052 0.12559,-0.0998 0.29174,-0.14958 0.49883,-0.14958 0.13899,0 0.25787,0.0257 0.35771,0.0769 0.0988,0.0512 0.17145,0.12383 0.21661,0.21873 l -0.29175,0.20108 c -0.0215,-0.0568 -0.0589,-0.10231 -0.11254,-0.13582 -0.0536,-0.0335 -0.11571,-0.0504 -0.18697,-0.0504 -0.0783,0 -0.14111,0.0187 -0.18803,0.0564 -0.0473,0.0367 -0.0713,0.0864 -0.0713,0.14852 0,0.0931 0.10619,0.1785 0.3182,0.25611 0.0674,0.024 0.11889,0.0434 0.15523,0.0589 0.16545,0.0653 0.28398,0.1397 0.35489,0.2226 0.072,0.0829 0.1076,0.18556 0.1076,0.30974 0,0.17921 -0.0653,0.31961 -0.19544,0.42086 -0.12982,0.1016 -0.30903,0.15275 -0.53799,0.15275 -0.17603,0 -0.32138,-0.0332 -0.43779,-0.0984 -0.11642,-0.066 -0.20708,-0.16616 -0.27305,-0.30127"
       style="fill:#254aa5;fill-opacity:1;fill-rule:nonzero;stroke:none;stroke-width:0.35277775"
       id="path82"
       inkscape:connector-curvature="0" />
    <path
       d="m 85.541161,72.590649 h -0.41133 v -1.79599 h 0.38664 v 0.29351 c 0.0822,-0.12559 0.17533,-0.2166 0.2794,-0.2741 0.10407,-0.0575 0.22719,-0.0861 0.36865,-0.0861 0.1397,0 0.25612,0.0293 0.34819,0.0878 0.0924,0.0589 0.16228,0.14817 0.20991,0.26846 0.0953,-0.12417 0.19614,-0.21413 0.30268,-0.27093 0.10689,-0.0568 0.2286,-0.0854 0.36477,-0.0854 0.11854,0 0.2219,0.0219 0.31045,0.0653 0.0889,0.0434 0.15734,0.10725 0.20637,0.19015 0.0233,0.0395 0.0402,0.0861 0.0504,0.1404 0.0109,0.0543 0.0162,0.13194 0.0162,0.23354 v 1.23331 h -0.41134 v -0.92286 c 0,-0.2413 -0.0257,-0.40041 -0.0769,-0.47661 -0.0512,-0.0765 -0.14252,-0.11465 -0.27375,-0.11465 -0.16157,0 -0.27658,0.0519 -0.34537,0.15452 -0.0691,0.10301 -0.10336,0.28328 -0.10336,0.54081 v 0.81879 h -0.41522 v -0.92286 c 0,-0.22261 -0.0265,-0.37642 -0.0801,-0.46249 -0.0536,-0.0861 -0.1464,-0.12877 -0.27763,-0.12877 -0.0808,0 -0.15452,0.0183 -0.2219,0.055 -0.0663,0.037 -0.11959,0.0871 -0.1591,0.15134 -0.0251,0.042 -0.0427,0.0931 -0.0529,0.15381 -0.01,0.0603 -0.0148,0.17215 -0.0148,0.33514 v 0.81879"
       style="fill:#254aa5;fill-opacity:1;fill-rule:nonzero;stroke:none;stroke-width:0.35277775"
       id="path84"
       inkscape:connector-curvature="0" />
    <path
       d="m 90.215121,72.590649 h -0.41134 v -0.23283 c -0.073,0.10336 -0.1591,0.18027 -0.25682,0.23107 -0.0977,0.0504 -0.20955,0.0755 -0.3362,0.0755 -0.25365,0 -0.45332,-0.0868 -0.59972,-0.2607 -0.14535,-0.17321 -0.21837,-0.41134 -0.21837,-0.71331 0,-0.28646 0.0741,-0.51788 0.22366,-0.69392 0.14887,-0.17674 0.34325,-0.26458 0.58349,-0.26458 0.14605,0 0.27164,0.0303 0.37571,0.0917 0.10407,0.0617 0.18027,0.14958 0.22825,0.26423 v -0.29316 h 0.41134 z m -0.3997,-0.90417 c 0,-0.18556 -0.0434,-0.32984 -0.13017,-0.43391 -0.0864,-0.10337 -0.20744,-0.15522 -0.36266,-0.15522 -0.15522,0 -0.27764,0.0536 -0.36654,0.16016 -0.0889,0.10689 -0.13335,0.25506 -0.13335,0.4445 0,0.19085 0.0427,0.33761 0.12877,0.44167 0.0857,0.10372 0.20673,0.15523 0.36336,0.15523 0.14817,0 0.26846,-0.0561 0.36089,-0.16863 0.0931,-0.11254 0.1397,-0.26 0.1397,-0.4438"
       style="fill:#254aa5;fill-opacity:1;fill-rule:nonzero;stroke:none;stroke-width:0.35277775"
       id="path86"
       inkscape:connector-curvature="0" />
    <path
       d="m 90.836711,72.380399 c 0,-0.0699 0.024,-0.12877 0.0716,-0.17851 0.0487,-0.049 0.1076,-0.0737 0.17674,-0.0737 0.0691,0 0.12806,0.0247 0.17639,0.0737 0.048,0.0498 0.072,0.10866 0.072,0.17851 0,0.0677 -0.024,0.12594 -0.072,0.17321 -0.0483,0.0473 -0.10724,0.0713 -0.17639,0.0713 -0.0691,0 -0.12805,-0.024 -0.17674,-0.0713 -0.0476,-0.0473 -0.0716,-0.10548 -0.0716,-0.17321"
       style="fill:#254aa5;fill-opacity:1;fill-rule:nonzero;stroke:none;stroke-width:0.35277775"
       id="path88"
       inkscape:connector-curvature="0" />
    <path
       d="m 93.366841,71.698129 c 0,-0.16687 -0.0536,-0.30798 -0.16123,-0.42369 -0.10724,-0.11571 -0.23847,-0.17321 -0.3937,-0.17321 -0.15451,0 -0.28504,0.0575 -0.39334,0.17321 -0.10795,0.11571 -0.16228,0.25682 -0.16228,0.42369 0,0.16686 0.0543,0.30762 0.16228,0.42368 0.1083,0.11571 0.23883,0.17322 0.39334,0.17322 0.15382,0 0.2847,-0.0575 0.39265,-0.17322 0.10795,-0.11606 0.16228,-0.25682 0.16228,-0.42368 z m -1.54447,-0.004 c 0,-0.13124 0.0254,-0.25541 0.0751,-0.37183 0.0497,-0.11712 0.12136,-0.22119 0.21449,-0.31186 0.0928,-0.09 0.19862,-0.15839 0.31891,-0.20708 0.11959,-0.0476 0.24518,-0.0716 0.37712,-0.0716 0.13512,0 0.26176,0.024 0.38171,0.0716 0.11959,0.0487 0.22613,0.11924 0.32138,0.21238 0.0942,0.0924 0.16686,0.19649 0.2159,0.31291 0.049,0.11571 0.0737,0.23812 0.0737,0.36548 0,0.13264 -0.0247,0.25752 -0.073,0.37324 -0.0483,0.11641 -0.11959,0.21907 -0.21273,0.30903 -0.0991,0.0945 -0.20849,0.16616 -0.32808,0.21484 -0.1203,0.0483 -0.24624,0.073 -0.37888,0.073 -0.13088,0 -0.25542,-0.0247 -0.37571,-0.073 -0.11959,-0.0487 -0.22648,-0.11924 -0.32032,-0.21096 -0.0942,-0.0938 -0.16687,-0.19861 -0.2159,-0.31503 -0.049,-0.11571 -0.0737,-0.23989 -0.0737,-0.37112"
       style="fill:#254aa5;fill-opacity:1;fill-rule:nonzero;stroke:none;stroke-width:0.35277775"
       id="path90"
       inkscape:connector-curvature="0" />
    <path
       d="m 94.647421,71.080409 c 0.0437,-0.11818 0.10266,-0.20637 0.17533,-0.26317 0.0723,-0.0568 0.16228,-0.0854 0.27023,-0.0854 0.0575,0 0.115,0.007 0.17145,0.0205 0.0561,0.0145 0.11112,0.0346 0.16545,0.061 l -0.14817,0.34854 c -0.0349,-0.025 -0.073,-0.0437 -0.1143,-0.0557 -0.0409,-0.012 -0.0868,-0.018 -0.13723,-0.018 -0.13652,0 -0.23424,0.0543 -0.29351,0.16369 -0.0596,0.10936 -0.0892,0.29281 -0.0892,0.55033 v 0.78846 h -0.41134 v -1.79987 h 0.41134 v 0.28963"
       style="fill:#254aa5;fill-opacity:1;fill-rule:nonzero;stroke:none;stroke-width:0.35277775"
       id="path92"
       inkscape:connector-curvature="0" />
    <path
       d="m 96.954941,71.686479 c 0,-0.18556 -0.0434,-0.32984 -0.12983,-0.43391 -0.0868,-0.10337 -0.20778,-0.15522 -0.363,-0.15522 -0.15522,0 -0.27764,0.0536 -0.36654,0.16051 -0.0889,0.10654 -0.13335,0.25471 -0.13335,0.44415 0,0.19085 0.0427,0.33761 0.12877,0.44167 0.0857,0.10372 0.20672,0.15523 0.36336,0.15523 0.14816,0 0.26846,-0.0561 0.36089,-0.16863 0.0931,-0.11254 0.1397,-0.26 0.1397,-0.4438 z m 0.3997,0.79234 c 0,0.35102 -0.0698,0.59902 -0.21026,0.7419 -0.14041,0.14358 -0.37642,0.21519 -0.70873,0.21519 -0.24695,0 -0.44485,-0.0522 -0.59302,-0.15628 -0.14746,-0.10407 -0.2226,-0.24271 -0.22507,-0.41593 l 0.44097,-0.002 c 0.006,0.0773 0.0427,0.13582 0.10795,0.17675 0.066,0.0406 0.15769,0.0607 0.27693,0.0607 0.17533,0 0.30127,-0.0388 0.37888,-0.11571 0.0769,-0.0769 0.11571,-0.20637 0.11712,-0.38664 l 0.004,-0.23883 c -0.073,0.10336 -0.1591,0.18062 -0.25682,0.23107 -0.0977,0.0504 -0.20955,0.0755 -0.33619,0.0755 -0.25365,0 -0.45332,-0.0864 -0.59973,-0.2607 -0.14534,-0.17322 -0.21837,-0.41134 -0.21837,-0.71332 0,-0.28645 0.0741,-0.51788 0.22366,-0.69391 0.14888,-0.17639 0.34326,-0.26459 0.5835,-0.26459 0.14605,0 0.27164,0.0303 0.37571,0.0921 0.10407,0.0614 0.18027,0.14922 0.22824,0.26388 v -0.29316 h 0.41134 v 1.68416"
       style="fill:#254aa5;fill-opacity:1;fill-rule:nonzero;stroke:none;stroke-width:0.35277775"
       id="path94"
       inkscape:connector-curvature="0" />
    <path
       d="m 64.620031,68.227499 0.39229,-0.18133 c 0.0374,0.13476 0.10584,0.23777 0.20461,0.30833 0.0995,0.0713 0.22649,0.10654 0.3803,0.10654 0.14605,0 0.26246,-0.0409 0.34854,-0.12206 0.0861,-0.0811 0.12912,-0.1898 0.12912,-0.32597 0,-0.1778 -0.14746,-0.33655 -0.44238,-0.47554 -0.0416,-0.0205 -0.0727,-0.036 -0.0952,-0.0452 -0.33303,-0.16298 -0.55528,-0.30974 -0.66605,-0.44168 -0.11077,-0.13123 -0.16651,-0.2928 -0.16651,-0.4826 0,-0.24694 0.084,-0.44661 0.25118,-0.59972 0.16721,-0.15311 0.38664,-0.22931 0.65828,-0.22931 0.22296,0 0.40993,0.043 0.56021,0.12912 0.15029,0.0861 0.254,0.21026 0.31186,0.37112 l -0.38453,0.19826 c -0.0607,-0.0953 -0.127,-0.16439 -0.19967,-0.20813 -0.072,-0.0444 -0.15522,-0.0663 -0.24906,-0.0663 -0.13194,0 -0.23707,0.0346 -0.31468,0.10301 -0.0783,0.0692 -0.11712,0.16158 -0.11712,0.27729 0,0.18203 0.17074,0.35136 0.51294,0.508 0.0261,0.0127 0.0466,0.0226 0.0614,0.0289 0.29915,0.13828 0.50447,0.27305 0.61665,0.40428 0.11148,0.13194 0.16722,0.29633 0.16722,0.49318 0,0.28646 -0.0903,0.51435 -0.27093,0.68298 -0.18063,0.16863 -0.42404,0.25329 -0.73166,0.25329 -0.25753,0 -0.46849,-0.0593 -0.63359,-0.1778 -0.1644,-0.11853 -0.27235,-0.28786 -0.32315,-0.5087"
       style="fill:#254aa5;fill-opacity:1;fill-rule:nonzero;stroke:none;stroke-width:0.35277775"
       id="path232"
       inkscape:connector-curvature="0" />
    <path
       d="m 69.352551,63.664659 0.74012,-0.15381 4.0887,10.39813 h -0.80116 l -3.72322,-9.47032 z"
       style="fill:#ffffff;fill-opacity:1;fill-rule:evenodd;stroke:#254aa5;stroke-width:0.20002498;stroke-linecap:butt;stroke-linejoin:miter;stroke-miterlimit:22.9260006;stroke-dasharray:none;stroke-opacity:1"
       id="path250"
       inkscape:connector-curvature="0" />
    <path
       d="m 56.859631,73.908989 4.15149,-10.48774 0.80045,-0.003 3.71052,9.4428 3.73838,-9.4428 0.79657,3.6e-4 -0.40005,1.01988 -3.72321,9.47032 h -0.82621 l -3.69817,-9.47456 -3.75073,9.47456 h -0.79904"
       style="fill:#254aa5;fill-opacity:1;fill-rule:evenodd;stroke:none;stroke-width:0.35277775"
       id="path276"
       inkscape:connector-curvature="0" />
  </g>
</svg>
