<?xml version="1.0" encoding="UTF-8" standalone="no"?>
<!-- Created with Inkscape (http://www.inkscape.org/) -->

<svg
   xmlns:dc="http://purl.org/dc/elements/1.1/"
   xmlns:cc="http://creativecommons.org/ns#"
   xmlns:rdf="http://www.w3.org/1999/02/22-rdf-syntax-ns#"
   xmlns:svg="http://www.w3.org/2000/svg"
   xmlns="http://www.w3.org/2000/svg"
   xmlns:sodipodi="http://sodipodi.sourceforge.net/DTD/sodipodi-0.dtd"
   xmlns:inkscape="http://www.inkscape.org/namespaces/inkscape"
   width="21.725115mm"
   height="21.725103mm"
   viewBox="0 0 21.725115 21.725103"
   version="1.1"
   id="svg983"
   inkscape:version="0.92.5 (2060ec1f9f, 2020-04-08)"
   sodipodi:docname="nomisma-round.svg">
  <defs
     id="defs977" />
  <sodipodi:namedview
     id="base"
     pagecolor="#ffffff"
     bordercolor="#666666"
     borderopacity="1.0"
     inkscape:pageopacity="0.0"
     inkscape:pageshadow="2"
     inkscape:zoom="5.6"
     inkscape:cx="12.794491"
     inkscape:cy="76.508052"
     inkscape:document-units="mm"
     inkscape:current-layer="layer1"
     showgrid="false"
     inkscape:window-width="3752"
     inkscape:window-height="2096"
     inkscape:window-x="88"
     inkscape:window-y="27"
     inkscape:window-maximized="1" />
  <metadata
     id="metadata980">
    <rdf:RDF>
      <cc:Work
         rdf:about="">
        <dc:format>image/svg+xml</dc:format>
        <dc:type
           rdf:resource="http://purl.org/dc/dcmitype/StillImage" />
        <dc:title />
      </cc:Work>
    </rdf:RDF>
  </metadata>
  <g
     inkscape:label="Layer 1"
     inkscape:groupmode="layer"
     id="layer1"
     transform="translate(-28.927838,-10.97029)">
    <path
       d="m 39.79039,11.070302 c 5.9429,0 10.76255,4.819289 10.76255,10.762538 0,5.94289 -4.81965,10.76254 -10.76255,10.76254 -5.94289,0 -10.76254,-4.81965 -10.76254,-10.76254 0,-5.943249 4.81965,-10.762538 10.76254,-10.762538 z m 0,0.80997 c 5.49557,0 9.95257,4.456649 9.95257,9.952568 0,5.49557 -4.457,9.95221 -9.95257,9.95221 -5.49557,0 -9.95256,-4.45664 -9.95256,-9.95221 0,-5.495919 4.45699,-9.952568 9.95256,-9.952568 z"
       style="fill:#6e87cd;fill-opacity:1;fill-rule:evenodd;stroke:#254aa5;stroke-width:0.20002498;stroke-linecap:butt;stroke-linejoin:miter;stroke-miterlimit:22.9260006;stroke-dasharray:none;stroke-opacity:1"
       id="path36"
       inkscape:connector-curvature="0" />
    <path
       d="m 41.12389,20.716311 h 4.84047 l 0.16474,0.800099 h -5.17701 l 0.1718,-0.800099"
       style="fill:#6e87cd;fill-opacity:1;fill-rule:evenodd;stroke:none;stroke-width:0.35277775"
       id="path50"
       inkscape:connector-curvature="0" />
    <path
       d="m 36.62809,22.39376 c 0,-0.1524 -0.0282,-0.29774 -0.084,-0.43603 -0.0557,-0.13758 -0.13546,-0.26035 -0.24059,-0.36759 -0.1016,-0.10654 -0.22014,-0.18768 -0.35419,-0.24483 -0.13476,-0.0571 -0.27587,-0.0861 -0.42475,-0.0861 -0.14887,0 -0.29068,0.0282 -0.42474,0.0847 -0.13406,0.0564 -0.254,0.13829 -0.35842,0.24624 -0.10442,0.10583 -0.18486,0.22789 -0.23989,0.36547 -0.055,0.13829 -0.0826,0.28434 -0.0826,0.43815 0,0.15311 0.0275,0.29775 0.0826,0.43463 0.055,0.13617 0.13547,0.25823 0.23989,0.36547 0.10442,0.10795 0.22366,0.1898 0.35771,0.24624 0.13335,0.0564 0.27517,0.0847 0.42545,0.0847 0.14747,0 0.28787,-0.0282 0.42052,-0.0847 0.13264,-0.0565 0.25258,-0.13829 0.35842,-0.24624 0.10513,-0.10724 0.18485,-0.2293 0.24059,-0.36688 0.0557,-0.13688 0.084,-0.28152 0.084,-0.43322 z m 0.51294,0 c 0,0.2152 -0.0402,0.4184 -0.12065,0.6096 -0.0811,0.19191 -0.19826,0.36266 -0.35278,0.51294 -0.15592,0.15029 -0.33161,0.26529 -0.52705,0.34502 -0.19543,0.0797 -0.40075,0.11994 -0.61595,0.11994 -0.21801,0 -0.42545,-0.0402 -0.623,-0.12065 -0.19826,-0.0811 -0.37253,-0.19544 -0.52423,-0.34431 -0.15452,-0.15028 -0.27164,-0.32032 -0.35137,-0.51082 -0.0797,-0.18979 -0.11994,-0.3937 -0.11994,-0.61172 0,-0.2166 0.0402,-0.42051 0.11994,-0.61171 0.0797,-0.19191 0.19685,-0.36336 0.35137,-0.51506 0.15452,-0.15028 0.3295,-0.26458 0.52493,-0.3429 0.19544,-0.0783 0.40288,-0.117829 0.6223,-0.117829 0.21802,0 0.42404,0.0395 0.61878,0.117829 0.19544,0.0783 0.36971,0.19262 0.52422,0.3429 0.15452,0.15311 0.27164,0.32597 0.35278,0.51788 0.0804,0.19262 0.12065,0.39511 0.12065,0.60889"
       style="fill:#254aa5;fill-opacity:1;fill-rule:nonzero;stroke:none;stroke-width:0.35277775"
       id="path66"
       inkscape:connector-curvature="0" />
    <path
       d="m 32.66993,27.39651 v -1.143 h 0.24624 v 0.18697 c 0.0522,-0.079 0.11359,-0.13617 0.18415,-0.17251 0.0709,-0.0363 0.15698,-0.0543 0.25823,-0.0543 0.085,0 0.15769,0.0134 0.21766,0.0402 0.0596,0.0275 0.10654,0.0674 0.14041,0.1203 0.0201,0.0314 0.0346,0.0681 0.0434,0.10936 0.009,0.042 0.0134,0.11536 0.0134,0.21942 v 0.69357 h -0.26423 v -0.58738 c 0,-0.15028 -0.018,-0.25012 -0.0547,-0.29951 -0.0367,-0.0494 -0.1016,-0.0741 -0.19473,-0.0741 -0.0614,0 -0.11571,0.0109 -0.16333,0.0335 -0.048,0.0229 -0.0857,0.0547 -0.11289,0.0953 -0.0194,0.0275 -0.0328,0.0624 -0.0402,0.10584 -0.008,0.0427 -0.0116,0.11147 -0.0116,0.20531 v 0.52106 h -0.26176"
       style="fill:#254aa5;fill-opacity:1;fill-rule:nonzero;stroke:none;stroke-width:0.35277775"
       id="path162"
       inkscape:connector-curvature="0" />
    <path
       d="m 35.01978,26.82853 c 0,-0.10618 -0.0342,-0.19579 -0.10266,-0.26952 -0.0681,-0.0737 -0.15169,-0.11042 -0.25047,-0.11042 -0.0984,0 -0.18133,0.0367 -0.25012,0.11042 -0.0688,0.0737 -0.10336,0.16334 -0.10336,0.26952 0,0.10619 0.0346,0.19579 0.10336,0.26953 0.0688,0.0737 0.15169,0.11041 0.25012,0.11041 0.0981,0 0.18097,-0.0367 0.24977,-0.11041 0.0688,-0.0737 0.10336,-0.16334 0.10336,-0.26953 z m -0.98284,-0.002 c 0,-0.0836 0.0162,-0.16263 0.0476,-0.23671 0.0317,-0.0744 0.0776,-0.14076 0.13687,-0.19826 0.0589,-0.0571 0.1263,-0.1009 0.20285,-0.13159 0.0762,-0.0307 0.15593,-0.0459 0.23989,-0.0459 0.0861,0 0.16686,0.0152 0.24306,0.0459 0.0759,0.0307 0.14394,0.0755 0.20426,0.13476 0.0603,0.0589 0.10619,0.12524 0.13758,0.19932 0.031,0.0737 0.0469,0.15134 0.0469,0.23248 0,0.0843 -0.0159,0.16369 -0.0466,0.23742 -0.0311,0.0741 -0.0762,0.1397 -0.13547,0.19685 -0.0628,0.06 -0.13229,0.10583 -0.20849,0.13653 -0.0765,0.031 -0.15699,0.0466 -0.2413,0.0466 -0.0833,0 -0.16263,-0.0155 -0.23918,-0.0466 -0.0759,-0.0307 -0.14394,-0.0755 -0.20356,-0.13406 -0.0603,-0.0596 -0.10618,-0.12629 -0.13758,-0.20038 -0.0314,-0.0737 -0.0469,-0.15275 -0.0469,-0.23636"
       style="fill:#254aa5;fill-opacity:1;fill-rule:nonzero;stroke:none;stroke-width:0.35277775"
       id="path164"
       inkscape:connector-curvature="0" />
    <path
       d="m 35.8347,27.39651 h -0.26177 v -1.143 h 0.24624 v 0.18697 c 0.0522,-0.0797 0.11148,-0.13794 0.1778,-0.17463 0.0663,-0.0367 0.14429,-0.0547 0.2346,-0.0547 0.0889,0 0.16298,0.0187 0.22119,0.0561 0.0589,0.0374 0.10337,0.0942 0.13406,0.17075 0.0603,-0.079 0.12453,-0.13618 0.19261,-0.17251 0.0677,-0.0363 0.14535,-0.0543 0.23213,-0.0543 0.0751,0 0.14111,0.0141 0.19756,0.0416 0.0561,0.0275 0.0998,0.0684 0.13123,0.121 0.0148,0.025 0.0254,0.0547 0.0321,0.0892 0.007,0.0346 0.0102,0.084 0.0102,0.14852 v 0.78493 h -0.26177 v -0.58737 c 0,-0.15346 -0.0166,-0.25471 -0.049,-0.30339 -0.0325,-0.0483 -0.0903,-0.0727 -0.17392,-0.0727 -0.10301,0 -0.17639,0.0328 -0.21978,0.0984 -0.0441,0.0653 -0.066,0.18027 -0.066,0.34396 v 0.52105 h -0.26423 v -0.58738 c 0,-0.14146 -0.0169,-0.23953 -0.0512,-0.29421 -0.0339,-0.0547 -0.0928,-0.0818 -0.17639,-0.0818 -0.0515,0 -0.0984,0.0113 -0.14111,0.0349 -0.0427,0.0236 -0.0762,0.0557 -0.1016,0.0963 -0.0159,0.0268 -0.0268,0.0593 -0.0335,0.0981 -0.006,0.0381 -0.01,0.10936 -0.01,0.21308 v 0.52105"
       style="fill:#254aa5;fill-opacity:1;fill-rule:nonzero;stroke:none;stroke-width:0.35277775"
       id="path166"
       inkscape:connector-curvature="0" />
    <path
       d="m 37.71112,25.75926 c 0,-0.0444 0.0166,-0.0825 0.049,-0.11465 0.0324,-0.0321 0.0713,-0.0483 0.11606,-0.0483 0.0469,0 0.0857,0.0155 0.11642,0.0466 0.031,0.0307 0.0466,0.0695 0.0466,0.11642 0,0.0466 -0.0155,0.0857 -0.0469,0.11747 -0.0314,0.0314 -0.0699,0.0476 -0.11606,0.0476 -0.0448,0 -0.0836,-0.0166 -0.11606,-0.049 -0.0325,-0.0325 -0.049,-0.0713 -0.049,-0.11606 z m 0.29669,1.63725 h -0.2618 v -1.1429 h 0.2618 z"
       style="fill:#254aa5;fill-opacity:1;fill-rule:nonzero;stroke:none;stroke-width:0.35277775"
       id="path168"
       inkscape:connector-curvature="0" />
    <path
       d="m 38.24981,27.18907 0.21696,-0.11818 c 0.0159,0.0571 0.0455,0.10054 0.0892,0.13053 0.0438,0.0296 0.0991,0.0445 0.16793,0.0445 0.0586,0 0.10442,-0.0138 0.13793,-0.0406 0.0332,-0.0268 0.0501,-0.0635 0.0501,-0.11007 0,-0.0621 -0.0593,-0.11536 -0.17816,-0.1591 -0.0402,-0.0145 -0.0713,-0.0265 -0.0931,-0.0363 -0.12206,-0.0508 -0.20779,-0.10195 -0.25612,-0.15452 -0.0487,-0.0522 -0.073,-0.11536 -0.073,-0.1905 0,-0.10195 0.0399,-0.18485 0.1203,-0.24835 0.0797,-0.0635 0.18556,-0.0953 0.31714,-0.0953 0.0885,0 0.16404,0.0166 0.22754,0.049 0.0631,0.0325 0.10901,0.0787 0.13794,0.13899 l -0.18556,0.12806 c -0.0138,-0.0363 -0.0374,-0.0649 -0.0716,-0.0864 -0.0342,-0.0215 -0.0737,-0.0321 -0.11889,-0.0321 -0.0497,0 -0.09,0.012 -0.11994,0.0356 -0.03,0.0236 -0.0452,0.0554 -0.0452,0.0949 0,0.0593 0.0674,0.11359 0.20249,0.16298 0.0427,0.0152 0.0759,0.0275 0.0988,0.0374 0.10548,0.0416 0.18062,0.0889 0.22578,0.14147 0.0459,0.0529 0.0684,0.11818 0.0684,0.1972 0,0.11395 -0.0416,0.20355 -0.12418,0.26811 -0.0829,0.0646 -0.19685,0.097 -0.34255,0.097 -0.11183,0 -0.20461,-0.0212 -0.27869,-0.0624 -0.0741,-0.042 -0.13159,-0.10583 -0.17357,-0.19191"
       style="fill:#254aa5;fill-opacity:1;fill-rule:nonzero;stroke:none;stroke-width:0.35277775"
       id="path170"
       inkscape:connector-curvature="0" />
    <path
       d="m 39.69444,27.39651 h -0.26176 v -1.143 h 0.24623 v 0.18697 c 0.0522,-0.0797 0.11148,-0.13794 0.1778,-0.17463 0.0663,-0.0367 0.14429,-0.0547 0.2346,-0.0547 0.0889,0 0.16299,0.0187 0.22119,0.0561 0.0589,0.0374 0.10337,0.0942 0.13406,0.17075 0.0603,-0.079 0.12453,-0.13618 0.19262,-0.17251 0.0677,-0.0363 0.14499,-0.0543 0.23212,-0.0543 0.0751,0 0.14111,0.0141 0.19756,0.0416 0.0561,0.0275 0.0998,0.0684 0.13123,0.121 0.0148,0.025 0.0254,0.0547 0.0321,0.0892 0.007,0.0346 0.0102,0.084 0.0102,0.14852 v 0.78493 h -0.26176 v -0.58737 c 0,-0.15346 -0.0166,-0.25471 -0.049,-0.30339 -0.0325,-0.0483 -0.0907,-0.0727 -0.17427,-0.0727 -0.10266,0 -0.17604,0.0328 -0.21978,0.0984 -0.0437,0.0653 -0.0656,0.18027 -0.0656,0.34396 v 0.52105 h -0.26423 v -0.58738 c 0,-0.14146 -0.0169,-0.23953 -0.0512,-0.29421 -0.0339,-0.0547 -0.0928,-0.0818 -0.17639,-0.0818 -0.0515,0 -0.0984,0.0113 -0.14111,0.0349 -0.0427,0.0236 -0.0762,0.0557 -0.1016,0.0963 -0.0159,0.0268 -0.0268,0.0593 -0.0335,0.0981 -0.006,0.0381 -0.01,0.10936 -0.01,0.21308 v 0.52105"
       style="fill:#254aa5;fill-opacity:1;fill-rule:nonzero;stroke:none;stroke-width:0.35277775"
       id="path172"
       inkscape:connector-curvature="0" />
    <path
       d="m 42.66871,27.39651 h -0.26176 v -0.14817 c -0.0466,0.066 -0.10125,0.115 -0.16334,0.14711 -0.0621,0.0321 -0.13335,0.048 -0.21414,0.048 -0.16122,0 -0.28857,-0.055 -0.38135,-0.16581 -0.0928,-0.11042 -0.13935,-0.26176 -0.13935,-0.45402 0,-0.18239 0.0476,-0.32985 0.14253,-0.44168 0.0949,-0.11219 0.21872,-0.16828 0.37112,-0.16828 0.0931,0 0.17286,0.0194 0.23918,0.0586 0.0663,0.0392 0.11501,0.0949 0.14535,0.16793 v -0.18662 h 0.26176 z m -0.25436,-0.57539 c 0,-0.11818 -0.0275,-0.2099 -0.0825,-0.27622 -0.0554,-0.0656 -0.13229,-0.0988 -0.23107,-0.0988 -0.0988,0 -0.17638,0.0342 -0.23318,0.10231 -0.0564,0.0677 -0.085,0.16192 -0.085,0.28257 0,0.12136 0.0272,0.21484 0.0818,0.28116 0.055,0.066 0.13194,0.0988 0.23142,0.0988 0.0942,0 0.17074,-0.036 0.22966,-0.10759 0.0593,-0.0713 0.0889,-0.16546 0.0889,-0.28222"
       style="fill:#254aa5;fill-opacity:1;fill-rule:nonzero;stroke:none;stroke-width:0.35277775"
       id="path174"
       inkscape:connector-curvature="0" />
    <path
       d="m 43.06417,27.26245 c 0,-0.0444 0.0152,-0.0818 0.0455,-0.11359 0.031,-0.031 0.0684,-0.0469 0.11254,-0.0469 0.0441,0 0.0815,0.0159 0.11218,0.0469 0.0307,0.0317 0.0459,0.0691 0.0459,0.11359 0,0.0434 -0.0152,0.0804 -0.0459,0.11042 -0.0307,0.03 -0.0681,0.0452 -0.11218,0.0452 -0.0441,0 -0.0815,-0.0152 -0.11254,-0.0452 -0.0303,-0.03 -0.0455,-0.067 -0.0455,-0.11042"
       style="fill:#254aa5;fill-opacity:1;fill-rule:nonzero;stroke:none;stroke-width:0.35277775"
       id="path176"
       inkscape:connector-curvature="0" />
    <path
       d="m 44.67425,26.82853 c 0,-0.10618 -0.0342,-0.19579 -0.10266,-0.26952 -0.0681,-0.0737 -0.15169,-0.11042 -0.25047,-0.11042 -0.0984,0 -0.18133,0.0367 -0.25012,0.11042 -0.0688,0.0737 -0.10337,0.16334 -0.10337,0.26952 0,0.10619 0.0346,0.19579 0.10337,0.26953 0.0688,0.0737 0.15169,0.11041 0.25012,0.11041 0.0981,0 0.18097,-0.0367 0.24976,-0.11041 0.0688,-0.0737 0.10337,-0.16334 0.10337,-0.26953 z m -0.98284,-0.002 c 0,-0.0836 0.0162,-0.16263 0.0476,-0.23671 0.0317,-0.0744 0.0776,-0.14076 0.13688,-0.19826 0.0586,-0.0571 0.12629,-0.1009 0.20284,-0.13159 0.0762,-0.0307 0.15593,-0.0459 0.23989,-0.0459 0.0861,0 0.16687,0.0152 0.24271,0.0459 0.0762,0.0307 0.14429,0.0755 0.20462,0.13476 0.0603,0.0589 0.10618,0.12524 0.13758,0.19932 0.031,0.0737 0.0469,0.15134 0.0469,0.23248 0,0.0843 -0.0159,0.16369 -0.0466,0.23742 -0.031,0.0741 -0.0762,0.1397 -0.13547,0.19685 -0.0628,0.06 -0.13229,0.10583 -0.20849,0.13653 -0.0765,0.031 -0.15699,0.0466 -0.2413,0.0466 -0.0833,0 -0.16263,-0.0155 -0.23918,-0.0466 -0.0758,-0.0307 -0.14394,-0.0755 -0.20356,-0.13406 -0.0603,-0.0596 -0.10618,-0.12629 -0.13758,-0.20038 -0.0314,-0.0737 -0.0469,-0.15276 -0.0469,-0.23637"
       style="fill:#254aa5;fill-opacity:1;fill-rule:nonzero;stroke:none;stroke-width:0.35277775"
       id="path178"
       inkscape:connector-curvature="0" />
    <path
       d="m 45.48916,26.43554 c 0.0279,-0.0751 0.0656,-0.13123 0.11148,-0.16757 0.0462,-0.036 0.10337,-0.0543 0.17216,-0.0543 0.0367,0 0.0734,0.005 0.10901,0.0131 0.036,0.009 0.0709,0.0219 0.10548,0.0388 l -0.0942,0.2219 c -0.0222,-0.0162 -0.0466,-0.0279 -0.073,-0.0353 -0.0258,-0.008 -0.055,-0.0116 -0.0871,-0.0116 -0.0871,0 -0.14923,0.0346 -0.18698,0.10406 -0.0378,0.0695 -0.0568,0.18663 -0.0568,0.35031 v 0.50165 h -0.26176 v -1.14547 h 0.26176 v 0.18451"
       style="fill:#254aa5;fill-opacity:1;fill-rule:nonzero;stroke:none;stroke-width:0.35277775"
       id="path180"
       inkscape:connector-curvature="0" />
    <path
       d="m 46.95778,26.82112 c 0,-0.11818 -0.0275,-0.2099 -0.0829,-0.27622 -0.055,-0.0656 -0.13194,-0.0988 -0.23072,-0.0988 -0.0988,0 -0.17674,0.0342 -0.23354,0.10231 -0.0561,0.0677 -0.0847,0.16192 -0.0847,0.28257 0,0.12136 0.0272,0.21484 0.0818,0.28116 0.0547,0.066 0.13194,0.0988 0.23143,0.0988 0.0942,0 0.17074,-0.036 0.22965,-0.10759 0.0593,-0.0713 0.0889,-0.16546 0.0889,-0.28222 z m 0.25435,0.50412 c 0,0.22367 -0.0444,0.381 -0.1337,0.47202 -0.0896,0.0914 -0.23954,0.13723 -0.4512,0.13723 -0.15734,0 -0.28328,-0.0335 -0.37748,-0.0998 -0.0938,-0.066 -0.14146,-0.15416 -0.14322,-0.26458 l 0.28081,-0.001 c 0.004,0.049 0.0272,0.0864 0.0688,0.11218 0.042,0.0261 0.10019,0.0388 0.17603,0.0388 0.11148,0 0.19191,-0.0247 0.2413,-0.0737 0.049,-0.049 0.0737,-0.13123 0.0744,-0.24589 l 0.003,-0.15204 c -0.0466,0.066 -0.10124,0.115 -0.16333,0.14711 -0.0624,0.0321 -0.13335,0.048 -0.21414,0.048 -0.16122,0 -0.28857,-0.055 -0.38135,-0.16581 -0.0928,-0.11042 -0.13934,-0.26176 -0.13934,-0.45403 0,-0.18238 0.0473,-0.32984 0.14252,-0.44167 0.0945,-0.11219 0.21872,-0.16828 0.37112,-0.16828 0.0931,0 0.17286,0.0194 0.23919,0.0586 0.0663,0.0392 0.115,0.0949 0.14534,0.16792 v -0.18661 h 0.26176 v 1.07173"
       style="fill:#254aa5;fill-opacity:1;fill-rule:nonzero;stroke:none;stroke-width:0.35277775"
       id="path182"
       inkscape:connector-curvature="0" />
    <path
       d="m 38.76275,18.963351 0.39229,-0.18133 c 0.0374,0.13477 0.10583,0.23778 0.20461,0.30833 0.0995,0.0713 0.22648,0.10654 0.3803,0.10654 0.14605,0 0.26246,-0.0409 0.34854,-0.12206 0.0861,-0.0811 0.12912,-0.18979 0.12912,-0.32597 0,-0.1778 -0.14746,-0.33655 -0.44239,-0.47554 -0.0416,-0.0205 -0.0727,-0.036 -0.0952,-0.0452 -0.33302,-0.16298 -0.55527,-0.30974 -0.66604,-0.44167 -0.11077,-0.13124 -0.16651,-0.29281 -0.16651,-0.4826 0,-0.24695 0.084,-0.44662 0.25118,-0.59973 0.16721,-0.1531 0.38664,-0.2293 0.65828,-0.2293 0.22295,0 0.40993,0.043 0.56021,0.12911 0.15028,0.0861 0.254,0.21026 0.31186,0.37113 l -0.38453,0.19826 c -0.0607,-0.0953 -0.127,-0.1644 -0.19967,-0.20814 -0.072,-0.0444 -0.15523,-0.0663 -0.24907,-0.0663 -0.13193,0 -0.23706,0.0346 -0.31467,0.10301 -0.0783,0.0691 -0.11713,0.16157 -0.11713,0.27728 0,0.18203 0.17075,0.35137 0.51294,0.508 0.0261,0.0127 0.0466,0.0226 0.0614,0.0289 0.29916,0.13829 0.50448,0.27305 0.61666,0.40428 0.11148,0.13194 0.16722,0.29634 0.16722,0.49319 0,0.28645 -0.0903,0.51435 -0.27094,0.68297 -0.18062,0.16863 -0.42404,0.2533 -0.73166,0.2533 -0.25753,0 -0.46849,-0.0593 -0.63359,-0.1778 -0.16439,-0.11854 -0.27234,-0.28787 -0.32314,-0.50871"
       style="fill:#254aa5;fill-opacity:1;fill-rule:nonzero;stroke:none;stroke-width:0.35277775"
       id="path236"
       inkscape:connector-curvature="0" />
    <path
       d="m 43.51608,14.780111 0.65193,-0.1965 4.15608,10.361079 h -0.8509 l -3.72357,-9.470319 z"
       style="fill:#ffffff;fill-opacity:1;fill-rule:evenodd;stroke:#254aa5;stroke-width:0.20002498;stroke-linecap:butt;stroke-linejoin:miter;stroke-miterlimit:22.9260006;stroke-dasharray:none;stroke-opacity:1"
       id="path258"
       inkscape:connector-curvature="0" />
    <path
       d="m 31.00235,24.9447 4.15148,-10.487729 0.80046,-0.003 3.71051,9.442799 3.73839,-9.442799 0.79657,3.4e-4 -0.40005,1.01988 -3.67312,9.470329 H 39.2002 l -3.64808,-9.424459 -3.70064,9.424459 h -0.84913"
       style="fill:#254aa5;fill-opacity:1;fill-rule:evenodd;stroke:none;stroke-width:0.35277775"
       id="path280"
       inkscape:connector-curvature="0" />
  </g>
</svg>
